<?xml version="1.0" encoding="UTF-8"?>
<svg enable-background="new 0 0 148.5 160" version="1.1" viewBox="0 0 148.5 160" xml:space="preserve"
  xmlns="http://www.w3.org/2000/svg"
  xmlns:xlink="http://www.w3.org/1999/xlink">
  <style type="text/css">	.st0{fill:#CAD3D7;}	.st1{fill:#CFD8DC;}	.st2{fill:#ECEFF1;}	.st3{fill:#E2E5E7;}	.st4{fill:url(#d);}	.st5{fill:#B0BEC5;}	.st6{fill:#90A4AE;}	.st7{fill:#78909C;}	.st8{fill:#C5CED2;}	.st9{clip-path:url(#a);}	.st10{clip-path:url(#a);fill:#ECEFF1;stroke:#E2E5E7;stroke-width:0.25;stroke-miterlimit:10;}	.st11{opacity:0.6;fill:#FFFFFF;}
</style>
  <path class="st0" d="m67 41.4h-4.2c-0.3 0-0.6 0.3-0.6 0.6s0.3 0.6 0.6 0.6h4.2c0.3 0 0.6-0.3 0.6-0.6s-0.2-0.6-0.6-0.6zm-9.9 0h-4.2c-0.3 0-0.6 0.3-0.6 0.6s0.3 0.6 0.6 0.6h4.2c0.3 0 0.6-0.3 0.6-0.6s-0.2-0.6-0.6-0.6zm-9.8 0h-4.3c-0.3 0-0.6 0.3-0.6 0.6s0.3 0.6 0.6 0.6h4.2c0.3 0 0.6-0.3 0.6-0.6s-0.2-0.6-0.5-0.6zm-9.9 0h-4.2c-0.3 0-0.6 0.3-0.6 0.6s0.3 0.6 0.6 0.6h4.2c0.3 0 0.6-0.3 0.6-0.6s-0.3-0.6-0.6-0.6zm-9.9 0c-0.6 0-1.2 0.2-1.7 0.6-0.5 0.5-0.8 1.1-0.8 1.9 0 0.3 0.2 0.6 0.5 0.6s0.6-0.2 0.6-0.5c0-0.9 0.8-1.6 1.7-1.6 0.3 0 0.6-0.3 0.6-0.6-0.4-0.2-0.6-0.4-0.9-0.4zm-2.2 7.8c-0.3 0-0.6 0.3-0.6 0.6v4.2c0 0.3 0.3 0.6 0.6 0.6s0.6-0.3 0.6-0.6v-4.2c-0.1-0.4-0.3-0.6-0.6-0.6zm0 9.9c-0.3 0-0.6 0.3-0.6 0.6v4.2c0 0.3 0.3 0.6 0.6 0.6s0.6-0.3 0.6-0.6v-4.2c-0.1-0.4-0.3-0.6-0.6-0.6zm0 9.8c-0.3 0-0.6 0.3-0.6 0.6v4.2c0 0.3 0.3 0.6 0.6 0.6s0.6-0.3 0.6-0.6v-4.2c-0.1-0.3-0.3-0.6-0.6-0.6zm0 9.9c-0.3 0-0.6 0.3-0.6 0.6v4.2c0 0.3 0.3 0.6 0.6 0.6s0.6-0.3 0.6-0.6v-4.2c-0.1-0.3-0.3-0.6-0.6-0.6zm0 9.9c-0.3 0-0.6 0.3-0.6 0.6v4.2c0 0.3 0.3 0.6 0.6 0.6s0.6-0.3 0.6-0.6v-4.2c-0.1-0.3-0.3-0.6-0.6-0.6zm0 9.9c-0.3 0-0.6 0.3-0.6 0.6v4.2c0 0.3 0.3 0.6 0.6 0.6s0.6-0.3 0.6-0.6v-4.2c-0.1-0.3-0.3-0.6-0.6-0.6zm0 9.9c-0.3 0-0.6 0.3-0.6 0.6v4.2c0 0.3 0.3 0.6 0.6 0.6s0.6-0.3 0.6-0.6v-4.2c-0.1-0.3-0.3-0.6-0.6-0.6zm0 9.9c-0.3 0-0.6 0.3-0.6 0.6v4.2c0 0.3 0.3 0.6 0.6 0.6s0.6-0.3 0.6-0.6v-4.2c-0.1-0.3-0.3-0.6-0.6-0.6zm0.4 9.4c-0.1 0-0.2 0-0.3 0.1-0.2 0.2-0.3 0.5-0.1 0.8 0.1 0.1 0.2 0.3 0.3 0.4h1.6c0.3 0 0.6-0.3 0.6-0.6s-0.3-0.6-0.6-0.6h-1.6c-0.5 0-1-0.2-1.3-0.7 1.8 0.7 1.6 0.6 1.4 0.6zm13.4 0.9h-4.2c-0.3 0-0.6 0.3-0.6 0.6s0.3 0.6 0.6 0.6h4.2c0.3 0 0.6-0.3 0.6-0.6s-0.3-0.6-0.6-0.6zm9.9 0h-4.2c-0.3 0-0.6 0.3-0.6 0.6s0.3 0.6 0.6 0.6h4.2c0.3 0 0.6-0.3 0.6-0.6s-0.3-0.6-0.6-0.6zm9.9 0h-4.2c-0.3 0-0.6 0.3-0.6 0.6s0.3 0.6 0.6 0.6h4.2c0.3 0 0.6-0.3 0.6-0.6s-0.3-0.6-0.6-0.6zm9.9 0h-4.2c-0.3 0-0.6 0.3-0.6 0.6s0.3 0.6 0.6 0.6h4.2c0.3 0 0.6-0.3 0.6-0.6s-0.3-0.6-0.6-0.6zm9.9 0h-4.2c-0.3 0-0.6 0.3-0.6 0.6s0.3 0.6 0.6 0.6h4.2c0.3 0 0.6-0.3 0.6-0.6s-0.3-0.6-0.6-0.6zm9.9 0h-4.2c-0.3 0-0.6 0.3-0.6 0.6s0.3 0.6 0.6 0.6h4.2c0.3 0 0.6-0.3 0.6-0.6s-0.3-0.6-0.6-0.6zm4.2-5.7c-0.3 0-0.6 0.3-0.6 0.6v3.4c0 0.2 0 0.3-0.1 0.5-0.1 0.3 0.1 0.6 0.4 0.7h0.2c0.2 0 0.5-0.2 0.5-0.4 0.1-0.2 0.1-0.4 0.1-0.6v-3.4c0.1-0.5-0.2-0.8-0.5-0.8zm0-9.9c-0.3 0-0.6 0.3-0.6 0.6v4.2c0 0.3 0.3 0.6 0.6 0.6s0.6-0.3 0.6-0.6v-4.2c0-0.3-0.3-0.6-0.6-0.6zm0-9.9c-0.3 0-0.6 0.3-0.6 0.6v4.2c0 0.3 0.3 0.6 0.6 0.6s0.6-0.3 0.6-0.6v-4.2c0-0.3-0.3-0.6-0.6-0.6zm0-9.9c-0.3 0-0.6 0.3-0.6 0.6v4.2c0 0.3 0.3 0.6 0.6 0.6s0.6-0.3 0.6-0.6v-4.2c0-0.3-0.3-0.6-0.6-0.6zm0-9.9c-0.3 0-0.6 0.3-0.6 0.6v4.2c0 0.3 0.3 0.6 0.6 0.6s0.6-0.3 0.6-0.6v-4.2c0-0.3-0.3-0.6-0.6-0.6zm0-9.8c-0.3 0-0.6 0.3-0.6 0.6v4.2c0 0.3 0.3 0.6 0.6 0.6s0.6-0.3 0.6-0.6v-4.2c0-0.4-0.3-0.6-0.6-0.6zm0-9.9c-0.3 0-0.6 0.3-0.6 0.6v4.2c0 0.3 0.3 0.6 0.6 0.6s0.6-0.3 0.6-0.6v-4.2c0-0.4-0.3-0.6-0.6-0.6zm-2.3-8.5c-0.1 0-0.3 0.1-0.4 0.2-0.2 0.2-0.2 0.6 0 0.8l2.1 2.1v0.3c0 0.3 0.3 0.6 0.6 0.6s0.6-0.3 0.6-0.6v-0.8l-0.1-0.1-0.1-0.1-0.2-0.2-0.1-0.1-0.1-0.1-0.1-0.1-0.1-0.1-0.1-0.1-0.1-0.1-0.1-0.1-0.3-0.3-0.1-0.1-0.3-0.3-0.6-0.6c-0.2-0.2-0.3-0.2-0.5-0.2zm-7-7c-0.1 0-0.3 0.1-0.4 0.2-0.2 0.2-0.2 0.6 0 0.8l3 3c0.1 0.1 0.3 0.2 0.4 0.2s0.3-0.1 0.4-0.2c0.2-0.2 0.2-0.6 0-0.8l-3-3c-0.1-0.2-0.2-0.2-0.4-0.2zm-6.6-6.8h-4.2c-0.3 0-0.6 0.3-0.6 0.6s0.3 0.6 0.6 0.6h3.8l2.7 2.7c0.1 0.1 0.3 0.2 0.4 0.2s0.3-0.1 0.4-0.2c0.2-0.2 0.2-0.6 0-0.8l-2.4-2.4-0.7-0.7z"/>
  <path class="st1" d="m68.6 108l-16.4-16.4v-69.1c0-1.5 1.2-2.7 2.7-2.7h63c1.5 0 2.7 1.2 2.7 2.7v82.8c0 1.5-1.2 2.7-2.7 2.7h-49.3z"/>
  <path class="st0" d="m118 19.8c1.4 0 2.6 1.2 2.6 2.6v82.8c0 1.4-1.2 2.6-2.6 2.6h-49.3l-16.3-16.3v-69.1c0-1.4 1.2-2.6 2.6-2.6h63m0-0.2h-63c-1.6 0-2.8 1.3-2.8 2.8v69.2l16.5 16.4h49.3c1.6 0 2.8-1.3 2.8-2.8v-82.8c0-1.5-1.3-2.8-2.8-2.8z"/>
  <path class="st2" d="m38.6 119c-1.5 0-2.7-1.2-2.7-2.7v-82.8c0-1.5 1.2-2.7 2.7-2.7h49.4l16.4 16.4v69.1c0 1.5-1.2 2.7-2.7 2.7h-63.1z"/>
  <path class="st3" d="m87.9 30.9l16.3 16.3v69.1c0 1.4-1.2 2.6-2.6 2.6h-63c-1.4 0-2.6-1.2-2.6-2.6v-82.8c0-1.4 1.2-2.6 2.6-2.6h49.3m0.1-0.3h-49.4c-1.6 0-2.8 1.3-2.8 2.8v82.8c0 1.6 1.3 2.8 2.8 2.8h63c1.6 0 2.8-1.3 2.8-2.8v-69.1l-16.4-16.5z"/>
  <path class="st1" d="m94.1 82.4h-48c-0.4 0-0.8-0.3-0.8-0.8v-0.6c0-0.4 0.3-0.8 0.8-0.8h48c0.4 0 0.8 0.3 0.8 0.8v0.7c-0.1 0.4-0.4 0.7-0.8 0.7z"/>
  <path class="st1" d="m94.1 89h-48c-0.4 0-0.8-0.3-0.8-0.8v-0.7c0-0.4 0.3-0.8 0.8-0.8h48c0.4 0 0.8 0.3 0.8 0.8v0.7c-0.1 0.5-0.4 0.8-0.8 0.8z"/>
  <path class="st1" d="m94.1 95.7h-48c-0.4 0-0.8-0.3-0.8-0.8v-0.7c0-0.4 0.3-0.8 0.8-0.8h48c0.4 0 0.8 0.3 0.8 0.8v0.7c-0.1 0.4-0.4 0.8-0.8 0.8z"/>
  <path class="st1" d="m94.1 102.3h-48c-0.4 0-0.8-0.3-0.8-0.8v-0.7c0-0.4 0.3-0.8 0.8-0.8h48c0.4 0 0.8 0.3 0.8 0.8v0.7c-0.1 0.4-0.4 0.8-0.8 0.8z"/>
  <path class="st1" d="m94.1 108.9h-48c-0.4 0-0.8-0.3-0.8-0.8v-0.7c0-0.4 0.3-0.8 0.8-0.8h48c0.4 0 0.8 0.3 0.8 0.8v0.7c-0.1 0.4-0.4 0.8-0.8 0.8z"/>
  <linearGradient id="d" x1="97.532" x2="96.591" y1="45.846" y2="51.185" gradientUnits="userSpaceOnUse">
    <stop stop-color="#78909C" stop-opacity=".6" offset="0"/>
    <stop stop-color="#97A9B2" stop-opacity=".2941" offset=".5098"/>
    <stop stop-color="#B0BEC5" stop-opacity="0" offset="1"/>
  </linearGradient>
  <polygon class="st4" points="89.3 46.6 104.5 52.6 104.5 47.1"/>
  <path class="st5" d="m88 30.6v13.8c0 1.5 1.2 2.8 2.8 2.8h13.8"/>
  <path class="st6" d="m47.5 40.6l1.9-1.9c0.1-0.1 0.1-0.4 0-0.5l-1.6-1.6c-0.1-0.1-0.4-0.1-0.5 0l-1.9 1.9-1.9-1.9c-0.1-0.1-0.4-0.1-0.5 0l-1.6 1.6c-0.1 0.1-0.1 0.4 0 0.5l1.9 1.9-1.9 1.9c-0.1 0.1-0.1 0.4 0 0.5l1.6 1.6c0.1 0.1 0.4 0.1 0.5 0l1.9-1.9 1.9 1.9c0.1 0.1 0.4 0.1 0.5 0l1.6-1.6c0.1-0.1 0.1-0.4 0-0.5l-1.9-1.9z"/>
  <circle class="st7" cx="57.3" cy="60.1" r="2.2"/>
  <path class="st7" d="m63 71.3c-0.1 0-0.1 0 0 0-0.4 0-0.6-0.3-0.5-0.6 0.5-4.7 4.2-6.9 7.6-6.9 3.3-0.1 7.1 2 7.7 6.4 0 0.3-0.2 0.6-0.5 0.6s-0.6-0.2-0.6-0.5c-0.5-3.8-3.6-5.5-6.5-5.5h-0.1c-3 0-6.1 1.9-6.6 5.9 0 0.4-0.3 0.6-0.5 0.6z"/>
  <circle class="st7" cx="82.6" cy="60.1" r="2.2"/>
  <g transform="matrix(1.25 0 0 -1.25 0 45)">
    <path class="st6" d="m20.8 15c-0.8-0.4-1.8 0-2.2 0.8l-0.9 1.9c-0.4 0.8-0.1 1.7 0.7 2.1 0.3 0.1 2.6 1.9 1.7 3.8-0.5 1-1.9 1.4-3.3 0.7-1.2-0.6-1.4-1.9-1.2-2.4 0.4-0.8 0.1-1.7-0.7-2.1s-1.7-0.1-2.1 0.7c-1.2 2.3 0 5.4 2.6 6.7 3.8 1.9 6.7-0.2 7.9-2.6 1-2 0.7-4-0.9-5.8-0.3-0.4-0.7-0.7-1.1-1l0.3-0.6c0.3-0.8-0.1-1.8-0.8-2.2"/>
    <path class="st6" d="m23.4 13.4c0.4-0.8 0.1-1.7-0.7-2.1s-1.7-0.1-2.1 0.7-0.1 1.7 0.7 2.1c0.7 0.4 1.7 0.1 2.1-0.7"/>
  </g>
  <path class="st0" d="m55.1 1.1c0.6 0 1.1 0.5 1.1 1.1s-0.5 1.1-1.1 1.1-1.1-0.5-1.1-1.1 0.5-1.1 1.1-1.1m0-1.1c-1.2 0-2.2 1-2.2 2.2s1 2.2 2.2 2.2 2.2-1 2.2-2.2-1-2.2-2.2-2.2z"/>
  <path class="st0" d="m71.3 138.7c0.6 0 1.1 0.5 1.1 1.1s-0.5 1.1-1.1 1.1-1.1-0.5-1.1-1.1 0.5-1.1 1.1-1.1m0-1.1c-1.2 0-2.2 1-2.2 2.2s1 2.2 2.2 2.2 2.2-1 2.2-2.2-1-2.2-2.2-2.2z"/>
  <path class="st0" d="m2.8 106.1c0.9 0 1.7 0.7 1.7 1.7 0 0.9-0.7 1.7-1.7 1.7s-1.7-0.7-1.7-1.7c0-0.9 0.8-1.7 1.7-1.7m0-1.1c-1.5 0-2.8 1.2-2.8 2.8 0 1.5 1.2 2.8 2.8 2.8s2.8-1.2 2.8-2.8c-0.1-1.6-1.3-2.8-2.8-2.8z"/>
  <path class="st0" d="m141.5 69.1c0.9 0 1.7 0.7 1.7 1.7 0 0.9-0.7 1.7-1.7 1.7s-1.7-0.7-1.7-1.7c0.1-1 0.8-1.7 1.7-1.7m0-1.1c-1.5 0-2.8 1.2-2.8 2.8s1.2 2.8 2.8 2.8c1.5 0 2.8-1.2 2.8-2.8s-1.3-2.8-2.8-2.8z"/>
  <path class="st0" d="m78.8 9.5l-1.3 1.3 1.3 1.3-0.3 0.3-1.3-1.3-1.3 1.3-0.3-0.4 1.3-1.3-1.3-1.3 0.3-0.3 1.3 1.3 1.3-1.3 0.3 0.4z"/>
  <path class="st6" d="m133.3 50v2.3h2.3v0.6h-2.3v2.3h-0.6v-2.3h-2.3v-0.6h2.3v-2.3h0.6z"/>
  <path class="st6" d="m12.2 86.5v2.3h2.3v0.6h-2.3v2.3h-0.6v-2.3h-2.2v-0.6h2.3v-2.3h0.5z"/>
  <path class="st0" d="m101.2 143.4l-1.3 1.3 1.3 1.3-0.3 0.3-1.3-1.3-1.3 1.3-0.3-0.3 1.3-1.3-1.3-1.3 0.3-0.3 1.3 1.3 1.3-1.3 0.3 0.3z"/>
  <path class="st6" d="m147.5 154.1l-17.6-20.5-0.9 0.8-3.1-3.6-3.6 3.1 3.1 3.6-0.9 0.8 17.6 20.5c1.3 1.5 3.5 1.7 5 0.4 1.5-1.4 1.7-3.6 0.4-5.1z"/>
  <circle class="st3" cx="112.2" cy="118.4" r="14.7"/>
  <path class="st8" d="m112.2 103.6c4.2 0 8.3 1.7 11.2 5.1 5.3 6.2 4.6 15.5-1.6 20.8-2.8 2.4-6.2 3.6-9.6 3.6-4.2 0-8.3-1.7-11.2-5.1-5.3-6.2-4.6-15.5 1.6-20.8 2.7-2.4 6.2-3.6 9.6-3.6m0-4.1v4.1-4.1c-4.5 0-8.9 1.6-12.3 4.5-3.8 3.3-6.1 7.9-6.5 12.9s1.2 9.9 4.5 13.7c3.6 4.2 8.8 6.6 14.3 6.6 4.5 0 8.9-1.6 12.3-4.5 3.8-3.3 6.1-7.9 6.5-12.9s-1.2-9.9-4.5-13.7c-3.6-4.2-8.8-6.6-14.3-6.6z"/>
  <defs>
    <circle id="e" cx="112.2" cy="118.4" r="14.7"/>
  </defs>
  <clipPath id="a">
    <use xlink:href="#e"/>
  </clipPath>
  <g class="st9">
    <path class="st1" d="m97.7 115.6c-1.5 0-2.7-1.2-2.7-2.7v-31.1c0-1.5 1.2-2.7 2.7-2.7h24.5c1.5 0 2.7 1.2 2.7 2.7v31.1c0 1.5-1.2 2.7-2.7 2.7h-24.5z"/>
    <path class="st0" d="m122.2 79.2c1.4 0 2.6 1.2 2.6 2.6v31.1c0 1.4-1.2 2.6-2.6 2.6h-24.5c-1.4 0-2.6-1.2-2.6-2.6v-31.1c0-1.4 1.2-2.6 2.6-2.6h24.5m0-0.3h-24.5c-1.6 0-2.8 1.3-2.8 2.8v31.1c0 1.6 1.3 2.8 2.8 2.8h24.5c1.6 0 2.8-1.3 2.8-2.8v-31c0-1.6-1.3-2.9-2.8-2.9z"/>
  </g>
  <path class="st10" d="m78.5 89.4v31.1c0 1.6 1.3 2.8 2.8 2.8h24.5c1.6 0 2.8-1.3 2.8-2.8v-31.1c0-1.6-1.3-2.8-2.8-2.8h-24.5c-1.6 0-2.8 1.2-2.8 2.8z"/>
  <path class="st11" d="m126.6 115.4l-10.5 17.2s-2.8 0.8-5.1 0.5l13.7-22.5c1.3 1.9 1.9 4.8 1.9 4.8z"/>
  <path class="st11" d="m123.6 109l-14.5 23.7c-1 0-2.1-0.6-2.1-0.6l15.1-24.7c0 0.1 0.8 0.9 1.5 1.6z"/>
</svg>
